<?xml version="1.0" encoding="UTF-8"?><svg id="Capa_1" xmlns="http://www.w3.org/2000/svg" viewBox="0 0 136.86 30.33"><g opacity=".97"><path d="M64.82,10.79c.26-.44.54-.87.78-1.25-.63.62-1.31,1.29-1.99,1.96-1.7,1.69-3.41,3.38-5.1,5.09-.21.21-.39.24-.65.15l-8.2-2.81c-.19-.08-.39-.14-.66-.25L71.31.79c.08-.05.17-.16.28-.09.1.07.06.2.05.3-.2,2.9-.4,5.79-.59,8.69-.2,2.98-.39,5.95-.59,8.93-.14,2.02-.28,4.04-.42,6.14-2.67-1.83-5.37-3.51-7.96-5.38.35.55.68,1.1,1.06,1.63.23.33.27.58.04.95-.54.9-1.01,1.83-1.52,2.76-.06.11-.13.22-.3.32-.03-.16-.06-.32-.09-.47-.41-2.07-.81-4.13-1.23-6.2-.05-.26,0-.45.14-.66l4.65-6.92Z" fill="#e11f33" stroke-width="0"/><path d="M41.66,30.33v-3.18h-1.46v-.49h3.46v.49h-1.45v3.18h-.55Z" fill="#fff" stroke-width="0"/><path d="M44.25,26.66h.55v1.52h2.01v-1.52h.55v3.67h-.55v-1.66h-2.01v1.66h-.55v-3.67Z" fill="#fff" stroke-width="0"/><path d="M50.83,28.67h-1.88v1.17h2.21v.49h-2.76v-3.67h2.65v.49h-2.1v1.07h1.88v.46Z" fill="#fff" stroke-width="0"/><path d="M55.94,28.61v-1.95h.55v3.67h-.49l-2.29-2.81h-.01c.04.42.05.73.05.93v1.87h-.55v-3.67h.49l2.29,2.81h.01c-.04-.43-.06-.71-.06-.86Z" fill="#fff" stroke-width="0"/><path d="M59.97,28.67h-1.88v1.17h2.21v.49h-2.76v-3.67h2.65v.49h-2.1v1.07h1.88v.46Z" fill="#fff" stroke-width="0"/><path d="M60.61,30.33l1.4-1.88-1.34-1.79h.66l1.05,1.4h.02c.11-.21.2-.34.26-.42l.74-.98h.64l-1.35,1.8,1.41,1.87h-.66l-1.11-1.48h-.02c-.16.26-.25.41-.29.46l-.76,1.03h-.64Z" fill="#fff" stroke-width="0"/><path d="M65.74,30.33v-3.18h-1.46v-.49h3.46v.49h-1.45v3.18h-.55Z" fill="#fff" stroke-width="0"/><path d="M69.67,26.66h.55v3.18h2.08v.49h-2.62v-3.67Z" fill="#fff" stroke-width="0"/><path d="M75.3,28.67h-1.88v1.17h2.21v.49h-2.76v-3.67h2.65v.49h-2.1v1.07h1.88v.46Z" fill="#fff" stroke-width="0"/><path d="M77.43,30.33l-1.58-3.67h.59l.98,2.27.22.66h.03c.1-.32.17-.54.22-.66l.98-2.27h.59l-1.58,3.67h-.44Z" fill="#fff" stroke-width="0"/><path d="M82.46,28.67h-1.88v1.17h2.21v.49h-2.76v-3.67h2.65v.49h-2.1v1.07h1.88v.46Z" fill="#fff" stroke-width="0"/><path d="M83.49,26.66h.55v3.18h2.08v.49h-2.62v-3.67Z" fill="#fff" stroke-width="0"/><path d="M2.61,0c1.51,0,2.55.42,2.55,2.11s-1.04,2.08-2.55,2.08S0,3.77,0,2.11,1.1,0,2.61,0ZM.56,6.65h4.09v15.19H.56V6.65Z" fill="#fff" stroke-width="0"/><path d="M6.59,15.04h4.21c.09,1.99,1.13,3.62,4.36,3.62,2.55,0,3.59-1.01,3.59-2.25,0-4.15-11.75-1.16-11.75-8.28,0-2.94,2.02-5.52,7.68-5.52,6.02,0,7.89,2.91,7.95,6.7h-4.18c-.24-1.93-.89-3.2-3.86-3.2-2.76,0-3.41,1.01-3.41,1.93,0,3.89,11.69.8,11.69,8.1,0,2.76-1.66,5.93-8.01,5.93-5.9,0-8.28-2.76-8.28-7.03Z" fill="#fff" stroke-width="0"/><path d="M28.16,6.35h-4.92v-3.5h14.06v3.5h-4.98v15.49h-4.15V6.35Z" fill="#fff" stroke-width="0"/><path d="M86.3,2.85h13.44v3.5h-9.26v4.09h8.34v3.41h-8.34v4.48h9.26v3.5h-13.44V2.85Z" fill="#fff" stroke-width="0"/><path d="M101.33,12.34c0-5.19,1.57-9.73,8.78-9.73,6.29,0,8.57,3.06,8.57,6.5h-4.36c-.24-1.78-1.1-3-4.21-3-3.86,0-4.54,2.76-4.54,6.23s.68,6.26,4.54,6.26c2.79,0,4.36-1.57,4.36-4.18h-4.84v-3.41h9.08v10.83h-1.9l-1.04-2.97c-1.31,2.31-3.47,3.2-5.93,3.2-6.73,0-8.51-4.54-8.51-9.73Z" fill="#fff" stroke-width="0"/><path d="M125.27,16.08l-6.85-13.23h4.45l4.66,9.61,4.9-9.61h4.45l-7.21,13.23v5.76h-4.39v-5.76Z" fill="#fff" stroke-width="0"/><path d="M45.93,13.97l8.3-4.82s0-.09,0-.13c0-2.49-.83-6.17-8.04-6.17h-6.97v18.99h4.21v-7.56l6.2,7.56h5.61l-6.42-6.86-2.89-1.01ZM43.43,6.35h2.94c2.97,0,3.56,1.48,3.56,2.73s-.59,2.61-3.56,2.61h-2.94v-5.34Z" fill="#fff" stroke-width="0"/><polygon points="72.81 2.85 72.55 6.35 75.25 6.35 75.25 21.83 79.4 21.83 79.4 6.35 84.39 6.35 84.39 2.85 72.81 2.85" fill="#fff" stroke-width="0"/></g></svg>