<?xml version="1.0" encoding="utf-8"?>
<!-- Generator: Adobe Illustrator 28.2.0, SVG Export Plug-In . SVG Version: 6.00 Build 0)  -->
<svg version="1.1" id="Capa_1" xmlns="http://www.w3.org/2000/svg" xmlns:xlink="http://www.w3.org/1999/xlink" x="0px" y="0px"
	 viewBox="0 0 136.9 30.3" style="enable-background:new 0 0 136.9 30.3;" xml:space="preserve">
<style type="text/css">
	.st0{fill:#E11F33;}
	.st1{fill:#2E465B;}
</style>
<g>
	<path class="st0" d="M65.4,10.8c0.3-0.4,0.5-0.9,0.8-1.3c-0.6,0.6-1.3,1.3-2,2c-1.7,1.7-3.4,3.4-5.1,5.1c-0.2,0.2-0.4,0.2-0.7,0.1
		l-8.2-2.8c-0.2-0.1-0.4-0.1-0.7-0.2L71.8,0.8c0.1,0,0.2-0.2,0.3-0.1c0.1,0.1,0.1,0.2,0,0.3c-0.2,2.9-0.4,5.8-0.6,8.7
		c-0.2,3-0.4,5.9-0.6,8.9c-0.1,2-0.3,4-0.4,6.1c-2.7-1.8-5.4-3.5-8-5.4c0.4,0.5,0.7,1.1,1.1,1.6c0.2,0.3,0.3,0.6,0,1
		c-0.5,0.9-1,1.8-1.5,2.8c-0.1,0.1-0.1,0.2-0.3,0.3c0-0.2-0.1-0.3-0.1-0.5c-0.4-2.1-0.8-4.1-1.2-6.2c-0.1-0.3,0-0.5,0.1-0.7
		L65.4,10.8z"/>
	<g>
		<path class="st1" d="M42.2,30.3v-3.2h-1.5v-0.5h3.5v0.5h-1.5v3.2H42.2z"/>
		<path class="st1" d="M44.8,26.6h0.5v1.5h2v-1.5h0.5v3.7h-0.5v-1.7h-2v1.7h-0.5V26.6z"/>
		<path class="st1" d="M51.4,28.7h-1.9v1.2h2.2v0.5H49v-3.7h2.6v0.5h-2.1v1.1h1.9V28.7z"/>
		<path class="st1" d="M56.5,28.6v-2H57v3.7h-0.5l-2.3-2.8h0c0,0.4,0.1,0.7,0.1,0.9v1.9h-0.5v-3.7h0.5l2.3,2.8h0
			C56.5,29,56.5,28.7,56.5,28.6z"/>
		<path class="st1" d="M60.5,28.7h-1.9v1.2h2.2v0.5h-2.8v-3.7h2.6v0.5h-2.1v1.1h1.9V28.7z"/>
		<path class="st1" d="M61.2,30.3l1.4-1.9l-1.3-1.8h0.7l1.1,1.4h0c0.1-0.2,0.2-0.3,0.3-0.4l0.7-1h0.6l-1.4,1.8l1.4,1.9H64l-1.1-1.5
			h0c-0.2,0.3-0.3,0.4-0.3,0.5l-0.8,1H61.2z"/>
		<path class="st1" d="M66.3,30.3v-3.2h-1.5v-0.5h3.5v0.5h-1.5v3.2H66.3z"/>
		<path class="st1" d="M70.2,26.6h0.5v3.2h2.1v0.5h-2.6V26.6z"/>
		<path class="st1" d="M75.8,28.7H74v1.2h2.2v0.5h-2.8v-3.7h2.6v0.5H74v1.1h1.9V28.7z"/>
		<path class="st1" d="M78,30.3l-1.6-3.7H77l1,2.3l0.2,0.7h0c0.1-0.3,0.2-0.5,0.2-0.7l1-2.3H80l-1.6,3.7H78z"/>
		<path class="st1" d="M83,28.7h-1.9v1.2h2.2v0.5h-2.8v-3.7h2.6v0.5h-2.1v1.1H83V28.7z"/>
		<path class="st1" d="M84,26.6h0.5v3.2h2.1v0.5H84V26.6z"/>
	</g>
	<g>
		<path class="st1" d="M3.2,0c1.5,0,2.5,0.4,2.5,2.1c0,1.7-1,2.1-2.5,2.1c-1.6,0-2.6-0.4-2.6-2.1C0.6,0.4,1.7,0,3.2,0z M1.1,6.7h4.1
			v15.2H1.1V6.7z"/>
		<path class="st1" d="M7.2,15h4.2c0.1,2,1.1,3.6,4.4,3.6c2.5,0,3.6-1,3.6-2.3c0-4.2-11.7-1.2-11.7-8.3c0-2.9,2-5.5,7.7-5.5
			c6,0,7.9,2.9,7.9,6.7H19c-0.2-1.9-0.9-3.2-3.9-3.2c-2.8,0-3.4,1-3.4,1.9c0,3.9,11.7,0.8,11.7,8.1c0,2.8-1.7,5.9-8,5.9
			C9.5,22.1,7.2,19.3,7.2,15z"/>
		<path class="st1" d="M28.7,6.4h-4.9V2.9h14.1v3.5h-5v15.5h-4.2V6.4z"/>
		<path class="st1" d="M86.8,2.9h13.4v3.5H91v4.1h8.3v3.4H91v4.5h9.2v3.5H86.8V2.9z"/>
		<path class="st1" d="M101.8,12.3c0-5.2,1.6-9.7,8.8-9.7c6.3,0,8.6,3.1,8.6,6.5h-4.4c-0.2-1.8-1.1-3-4.2-3c-3.9,0-4.5,2.8-4.5,6.2
			c0,3.5,0.7,6.3,4.5,6.3c2.8,0,4.4-1.6,4.4-4.2h-4.8V11h9.1v10.8h-1.9l-1-3c-1.3,2.3-3.5,3.2-5.9,3.2
			C103.6,22.1,101.8,17.5,101.8,12.3z"/>
		<path class="st1" d="M125.8,16.1l-6.8-13.2h4.4l4.7,9.6l4.9-9.6h4.4l-7.2,13.2v5.8h-4.4V16.1z"/>
		<path class="st1" d="M46.5,14l8.3-4.8c0,0,0-0.1,0-0.1c0-2.5-0.8-6.2-8-6.2h-7v19H44v-7.6l6.2,7.6h5.6L49.4,15L46.5,14z M44,6.4
			h2.9c3,0,3.6,1.5,3.6,2.7c0,1.2-0.6,2.6-3.6,2.6H44V6.4z"/>
		<polygon class="st1" points="73.3,2.9 73.1,6.4 75.8,6.4 75.8,21.8 79.9,21.8 79.9,6.4 84.9,6.4 84.9,2.9 		"/>
	</g>
</g>
</svg>
